<?xml version="1.0" standalone="no"?>
<!DOCTYPE svg PUBLIC "-//W3C//DTD SVG 20010904//EN"
 "http://www.w3.org/TR/2001/REC-SVG-20010904/DTD/svg10.dtd">
<svg version="1.0" xmlns="http://www.w3.org/2000/svg"
 width="200px" height="200px" viewBox="0 0 547.000000 547.000000"
 preserveAspectRatio="xMidYMid meet">
<g transform="translate(0.000000,547.000000) scale(0.100000,-0.100000)"
fill="#ff0000" stroke="none">
<path d="M2450 5463 c-646 -71 -1230 -356 -1681 -820 -436 -449 -695 -1009
-760 -1641 -15 -148 -6 -532 16 -672 42 -274 124 -537 244 -785 146 -301 293
-508 530 -746 419 -418 901 -667 1496 -770 173 -31 587 -38 776 -15 323 41
588 120 884 266 815 401 1381 1191 1500 2093 21 160 21 564 0 724 -116 885
-661 1660 -1456 2072 -295 153 -628 255 -951 290 -90 10 -518 13 -598 4z m677
-1841 l393 393 290 -290 290 -290 -392 -392 -393 -393 390 -390 390 -390 -290
-290 -290 -290 -390 390 -390 390 -390 -390 -390 -390 -290 290 -290 290 390
390 390 390 -390 390 -390 390 290 290 290 290 390 -390 390 -390 392 392z"/>
</g>
</svg>
