<?xml version="1.0" standalone="no"?>
<!DOCTYPE svg PUBLIC "-//W3C//DTD SVG 20010904//EN"
 "http://www.w3.org/TR/2001/REC-SVG-20010904/DTD/svg10.dtd">
<svg version="1.0" xmlns="http://www.w3.org/2000/svg"
 width="236.000000pt" height="195.000000pt" viewBox="0 0 292.000000 247.000000"
 preserveAspectRatio="xMidYMid meet">

<g transform="translate(0.000000,200.000000) scale(0.100000,-0.100000)"
fill="#0000ff" stroke="none">

<path d="M412 1025 c-142 -40 -220 -149 -210 -294 8 -109 63 -187 163 -233 96
-43 295 -23 325 32 15 29 13 29 -32 6 -57 -28 -186 -30 -238 -2 -49 26 -88 64
-113 111 -31 58 -31 193 1 252 42 79 123 119 223 110 83 -7 123 -33 127 -80 5
-55 18 -45 29 22 l9 59 -40 12 c-65 19 -184 22 -244 5z"/>
<path d="M1835 1030 c-87 -22 -155 -78 -191 -155 -29 -61 -32 -158 -7 -230 38
-113 158 -185 286 -171 156 16 255 119 265 276 6 105 -9 152 -67 210 -70 70
-182 97 -286 70z m127 -30 c89 -25 139 -103 146 -225 7 -132 -27 -212 -108
-252 -113 -58 -245 7 -285 139 -21 72 -19 183 4 233 44 96 135 135 243 105z"/>
<path d="M1140 1020 c-119 -4 -148 -12 -85 -22 19 -3 20 -12 23 -236 2 -232 2
-234 -20 -252 -23 -19 -21 -19 128 -20 179 0 231 12 296 70 53 46 86 115 94
197 16 152 -77 252 -246 264 -30 2 -116 2 -190 -1z m257 -51 c107 -52 137
-240 57 -362 -38 -58 -108 -87 -211 -87 l-83 0 0 234 c0 271 -11 247 114 241
53 -3 93 -12 123 -26z"/>
<path d="M2230 963 c0 -73 12 -82 26 -20 l9 42 78 3 77 3 0 -215 c0 -118 -4
-226 -10 -240 -8 -21 -16 -26 -45 -26 -19 0 -35 -4 -35 -10 0 -6 47 -10 120
-10 68 0 120 4 120 9 0 6 -17 11 -37 13 l-38 3 -3 238 -2 238 77 -3 78 -3 3
-42 c5 -66 22 -51 22 20 l0 62 -220 0 -220 0 0 -62z"/>
<path d="M761 688 c-8 -23 -7 -23 92 -26 74 -2 103 1 109 10 21 33 9 38 -92
38 -95 0 -101 -1 -109 -22z"/>
</g>
</svg>
