<?xml version="1.0" standalone="no"?>
<!DOCTYPE svg PUBLIC "-//W3C//DTD SVG 20010904//EN"
 "http://www.w3.org/TR/2001/REC-SVG-20010904/DTD/svg10.dtd">
<svg version="1.0" xmlns="http://www.w3.org/2000/svg"
 width="550.000000pt" height="250.000000pt" viewBox="0 0 550.000000 250.000000"
 preserveAspectRatio="xMidYMid meet">

<g transform="translate(0.000000,250.000000) scale(0.100000,-0.100000)"
fill="#0000ff" stroke="none">
<path d="M0 1255 l0 -1235 1240 0 1240 0 0 770 0 770 -410 0 -410 0 -2 -357
-3 -358 -412 -3 -413 -2 0 415 0 415 360 0 360 0 0 410 0 410 -775 0 -775 0 0
-1235z"/>
<path d="M1660 2080 l0 -410 410 0 410 0 0 410 0 410 -410 0 -410 0 0 -410z"/>
<path d="M3207 2130 c-32 -25 -51 -81 -43 -125 4 -19 22 -55 41 -80 l35 -45
-230 0 -230 0 0 -30 0 -30 85 0 85 0 0 -95 0 -94 -57 -3 -58 -3 2 -37 c1 -21
16 -65 33 -99 42 -83 180 -289 194 -289 6 0 17 4 24 9 10 6 4 19 -24 52 -31
38 -144 204 -144 213 0 1 18 22 40 45 22 23 40 48 40 56 0 21 14 18 36 -6 41
-47 124 -62 178 -34 15 8 30 15 32 15 2 0 4 -69 4 -154 0 -152 0 -154 25 -170
13 -9 27 -16 30 -16 2 0 6 136 7 303 l3 302 78 3 77 3 0 -288 0 -288 33 -23
32 -22 3 310 2 310 45 0 c43 0 45 1 45 30 0 29 -1 30 -49 30 l-48 0 -31 63
c-42 84 -112 170 -155 190 -48 23 -108 22 -140 -3z m181 -72 c35 -32 102 -137
102 -160 0 -16 -10 -18 -115 -18 l-115 0 -21 33 c-25 40 -22 126 5 156 33 36
98 31 144 -11z m-140 -334 c-3 -92 -4 -98 -30 -117 -33 -25 -126 -34 -167 -17
l-30 12 -3 105 c-2 58 -1 107 1 109 2 2 55 4 118 4 l114 0 -3 -96z"/>
<path d="M4291 2123 c36 -48 98 -107 131 -124 71 -37 183 -17 255 46 l38 33
-24 26 -25 26 -40 -39 c-49 -47 -81 -61 -145 -61 -37 0 -58 7 -95 31 -26 18
-54 42 -63 55 -8 13 -22 24 -30 24 -13 0 -13 -3 -2 -17z"/>
<path d="M3970 1850 l0 -30 175 0 175 0 0 -55 0 -55 -103 0 c-90 0 -106 -3
-125 -20 -27 -25 -27 -52 -3 -105 22 -48 106 -132 115 -116 4 6 30 17 58 26
87 26 160 -9 142 -68 -16 -54 -83 -97 -151 -97 -56 1 -116 32 -182 95 -47 44
-60 53 -69 42 -16 -19 4 -44 82 -106 73 -59 158 -101 201 -101 17 0 51 10 75
23 115 58 123 207 14 253 -41 17 -119 18 -164 2 -30 -10 -35 -9 -52 12 -21 25
-24 70 -6 88 8 8 50 12 125 12 l113 0 0 85 0 85 100 0 100 0 0 -287 0 -288 33
-23 32 -22 3 310 2 310 200 0 200 0 0 -74 0 -74 -91 -4 c-88 -3 -92 -4 -120
-36 -26 -28 -29 -40 -29 -95 1 -107 58 -196 152 -237 59 -25 122 -22 196 10
l43 20 -17 29 -17 29 -46 -20 c-144 -62 -261 -4 -261 129 0 47 4 59 29 84 29
28 32 29 130 29 l101 0 0 105 0 105 60 0 60 0 0 30 0 30 -640 0 -640 0 0 -30z"/>
<path d="M3670 1560 c0 -19 7 -20 130 -20 123 0 130 1 130 20 0 19 -7 20 -130
20 -123 0 -130 -1 -130 -20z"/>
<path d="M2992 1025 c-142 -40 -220 -149 -210 -294 8 -109 63 -187 163 -233
96 -43 295 -23 325 32 15 29 13 29 -32 6 -57 -28 -186 -30 -238 -2 -49 26 -88
64 -113 111 -31 58 -31 193 1 252 42 79 123 119 223 110 83 -7 123 -33 127
-80 5 -55 18 -45 29 22 l9 59 -40 12 c-65 19 -184 22 -244 5z"/>
<path d="M4415 1030 c-87 -22 -155 -78 -191 -155 -29 -61 -32 -158 -7 -230 38
-113 158 -185 286 -171 156 16 255 119 265 276 6 105 -9 152 -67 210 -70 70
-182 97 -286 70z m127 -30 c89 -25 139 -103 146 -225 7 -132 -27 -212 -108
-252 -113 -58 -245 7 -285 139 -21 72 -19 183 4 233 44 96 135 135 243 105z"/>
<path d="M3720 1020 c-119 -4 -148 -12 -85 -22 19 -3 20 -12 23 -236 2 -232 2
-234 -20 -252 -23 -19 -21 -19 128 -20 179 0 231 12 296 70 53 46 86 115 94
197 16 152 -77 252 -246 264 -30 2 -116 2 -190 -1z m257 -51 c107 -52 137
-240 57 -362 -38 -58 -108 -87 -211 -87 l-83 0 0 234 c0 271 -11 247 114 241
53 -3 93 -12 123 -26z"/>
<path d="M4810 963 c0 -73 12 -82 26 -20 l9 42 78 3 77 3 0 -215 c0 -118 -4
-226 -10 -240 -8 -21 -16 -26 -45 -26 -19 0 -35 -4 -35 -10 0 -6 47 -10 120
-10 68 0 120 4 120 9 0 6 -17 11 -37 13 l-38 3 -3 238 -2 238 77 -3 78 -3 3
-42 c5 -66 22 -51 22 20 l0 62 -220 0 -220 0 0 -62z"/>
<path d="M3341 688 c-8 -23 -7 -23 92 -26 74 -2 103 1 109 10 21 33 9 38 -92
38 -95 0 -101 -1 -109 -22z"/>
</g>
</svg>
