<?xml version="1.0" standalone="no"?>
<!DOCTYPE svg PUBLIC "-//W3C//DTD SVG 20010904//EN"
 "http://www.w3.org/TR/2001/REC-SVG-20010904/DTD/svg10.dtd">
<svg version="1.0" xmlns="http://www.w3.org/2000/svg"
 width="220.000000pt" height="215.000000pt" viewBox="0 0 220.000000 215.000000"
 preserveAspectRatio="xMidYMid meet">

<g transform="translate(0.000000,215.000000) scale(0.100000,-0.100000)"
fill="#ffffff" stroke="none">
<path d="M62 1073 l3 -1018 1035 0 1035 0 3 633 2 632 -340 0 -340 0 0 -320 0
-320 -357 2 -358 3 -3 357 -2 358 317 2 318 3 3 343 2 342 -660 0 -660 0 2
-1017z"/>
<path d="M1462 1748 l3 -343 335 0 335 0 3 343 2 342 -340 0 -340 0 2 -342z"/>
</g>
</svg>
